# xmcd
#
# Track frame offsets:
#	150
#	12584
#	30756
#	45830
#	55857
#	69244
#	88775
#	101350
#	116235
#	128102
#	144857
#	156432
#
# Disc length: 2328 seconds
#
# Revision: 1
# Processed by: cddbd v1.5.2PL0 Copyright (c) Steve Scherf et al.
# Submitted via: audiograbber 1.83.01
#
DISCID=9109160c
DTITLE=Brenda Lee - Greatest Gospel Songs
DYEAR=1900
DGENRE=Gospel
TTITLE0=This Little Light Of Mine
TTITLE1=Just A Closer Walk With Thee
TTITLE2=Softly And Tenderly
TTITLE3=Have A Little Talk With Jesus
TTITLE4=Amazing Grace
TTITLE5=What A Friend We Have In Jesus
TTITLE6=When The Roll Is Called Up Yonder
TTITLE7=In The Garden
TTITLE8=The Unclouded Day
TTITLE9=The Old Rugged Cross
TTITLE10=Jesus Loves Me
TTITLE11=Precious Memories
EXTD=
EXTT0=
EXTT1=
EXTT2=
EXTT3=
EXTT4=
EXTT5=
EXTT6=
EXTT7=
EXTT8=
EXTT9=
EXTT10=
EXTT11=
PLAYORDER=
